<?xml version="1.0" standalone="no"?>
<!DOCTYPE svg PUBLIC "-//W3C//DTD SVG 20010904//EN"
 "http://www.w3.org/TR/2001/REC-SVG-20010904/DTD/svg10.dtd">
<svg version="1.0" xmlns="http://www.w3.org/2000/svg"
 width="500.000000pt" height="500.000000pt" viewBox="0 0 500.000000 500.000000"
 preserveAspectRatio="xMidYMid meet">

<g transform="translate(0.000000,500.000000) scale(0.100000,-0.100000)"
fill="#a25cf7" stroke="none">
<path d="M2360 4619 c-569 -47 -1023 -364 -1281 -895 -105 -216 -183 -488
-224 -784 -22 -156 -31 -632 -16 -815 59 -708 277 -1192 668 -1482 273 -203
683 -306 1089 -273 675 53 1140 400 1394 1038 173 438 232 1105 150 1687 -134
942 -632 1461 -1460 1525 -148 11 -180 11 -320 -1z m365 -284 c89 -24 231 -98
305 -158 257 -209 428 -620 496 -1192 33 -284 33 -817 -1 -1080 -85 -658 -304
-1057 -665 -1211 -230 -99 -554 -83 -769 37 -368 206 -578 693 -632 1464 -15
213 -6 678 16 870 90 774 372 1194 865 1289 56 10 326 -2 385 -19z"/>
</g>
</svg>
